<svg width="81" height="77" viewBox="0 0 81 77" fill="none" xmlns="http://www.w3.org/2000/svg">
<path d="M4.96 76.25H5.26C5.79043 76.25 6.29914 76.0393 6.67421 75.6642C7.04929 75.2891 7.26 74.7804 7.26 74.25V73.92C7.24178 73.1296 7.52526 72.3619 8.05281 71.7731C8.58036 71.1843 9.31237 70.8184 10.1 70.75C10.5072 70.7283 10.9146 70.7898 11.2972 70.9307C11.6799 71.0717 12.0298 71.2893 12.3255 71.57C12.6213 71.8508 12.8567 72.1889 13.0173 72.5638C13.178 72.9386 13.2606 73.3422 13.26 73.75V74.25C13.26 74.7804 13.4707 75.2891 13.8458 75.6642C14.2209 76.0393 14.7296 76.25 15.26 76.25H18.79C19.5857 76.25 20.3487 75.9339 20.9113 75.3713C21.4739 74.8087 21.79 74.0456 21.79 73.25V68.32C21.79 66.9939 22.3168 65.7222 23.2545 64.7845C24.1922 63.8468 25.4639 63.32 26.79 63.32H54.9C56.2261 63.32 57.4978 63.8468 58.4355 64.7845C59.3732 65.7222 59.9 66.9939 59.9 68.32V73.25C59.9 74.0456 60.2161 74.8087 60.7787 75.3713C61.3413 75.9339 62.1044 76.25 62.9 76.25H65.54C66.0704 76.25 66.5791 76.0393 66.9542 75.6642C67.3293 75.2891 67.54 74.7804 67.54 74.25V73.92C67.5218 73.1296 67.8053 72.3619 68.3328 71.7731C68.8604 71.1843 69.5924 70.8184 70.38 70.75C70.7872 70.7283 71.1946 70.7898 71.5772 70.9307C71.9599 71.0717 72.3098 71.2893 72.6055 71.57C72.9013 71.8508 73.1367 72.1889 73.2973 72.5638C73.458 72.9386 73.5406 73.3422 73.54 73.75V74.25C73.54 74.7804 73.7507 75.2891 74.1258 75.6642C74.5009 76.0393 75.0096 76.25 75.54 76.25C76.8661 76.25 78.1378 75.7232 79.0755 74.7855C80.0132 73.8479 80.54 72.5761 80.54 71.25V5C80.54 3.67392 80.0132 2.40215 79.0755 1.46447C78.1378 0.526784 76.8661 0 75.54 0C75.0096 0 74.5009 0.210714 74.1258 0.585787C73.7507 0.96086 73.54 1.46957 73.54 2V2.33C73.5582 3.12039 73.2747 3.88805 72.7472 4.4769C72.2196 5.06575 71.4876 5.43157 70.7 5.5C70.2928 5.52175 69.8854 5.46025 69.5028 5.31925C69.1201 5.17826 68.7702 4.96073 68.4745 4.67996C68.1787 4.39918 67.9433 4.06106 67.7827 3.68625C67.622 3.31143 67.5394 2.9078 67.54 2.5V2C67.54 1.46957 67.3293 0.96086 66.9542 0.585787C66.5791 0.210714 66.0704 0 65.54 0H62.9C62.1044 0 61.3413 0.31607 60.7787 0.878679C60.2161 1.44129 59.9 2.20435 59.9 3V6.93C59.9 7.58661 59.7707 8.23679 59.5194 8.84342C59.2681 9.45004 58.8998 10.0012 58.4355 10.4655C57.9712 10.9298 57.42 11.2981 56.8134 11.5494C56.2068 11.8007 55.5566 11.93 54.9 11.93H26.79C25.4639 11.93 24.1922 11.4032 23.2545 10.4655C22.3168 9.52785 21.79 8.25608 21.79 6.93V3C21.79 2.20435 21.4739 1.44129 20.9113 0.878679C20.3487 0.31607 19.5857 0 18.79 0H15.26C14.7296 0 14.2209 0.210714 13.8458 0.585787C13.4707 0.96086 13.26 1.46957 13.26 2V2.33C13.279 3.11409 13.0011 3.87641 12.4818 4.46426C11.9626 5.0521 11.2404 5.42205 10.46 5.5C10.0528 5.52175 9.6454 5.46025 9.26276 5.31925C8.88011 5.17826 8.53022 4.96073 8.23447 4.67996C7.93873 4.39918 7.70333 4.06106 7.54266 3.68625C7.38199 3.31143 7.29942 2.9078 7.3 2.5V2C7.3 1.46957 7.08929 0.96086 6.71421 0.585787C6.33914 0.210714 5.83043 0 5.3 0H5C3.67392 0 2.40215 0.526784 1.46447 1.46447C0.526784 2.40215 2.56372e-09 3.67392 2.56372e-09 5V71.25C-4.22119e-05 72.5692 0.521247 73.8349 1.4503 74.7715C2.37934 75.708 3.64086 76.2394 4.96 76.25ZM67.54 16.75C67.54 15.9544 67.8561 15.1913 68.4187 14.6287C68.9813 14.0661 69.7444 13.75 70.54 13.75C71.3357 13.75 72.0987 14.0661 72.6613 14.6287C73.2239 15.1913 73.54 15.9544 73.54 16.75V21.5C73.54 22.2956 73.2239 23.0587 72.6613 23.6213C72.0987 24.1839 71.3357 24.5 70.54 24.5C69.7444 24.5 68.9813 24.1839 68.4187 23.6213C67.8561 23.0587 67.54 22.2956 67.54 21.5V16.75ZM67.54 35.75C67.54 34.9544 67.8561 34.1913 68.4187 33.6287C68.9813 33.0661 69.7444 32.75 70.54 32.75C71.3357 32.75 72.0987 33.0661 72.6613 33.6287C73.2239 34.1913 73.54 34.9544 73.54 35.75V40.5C73.54 41.2956 73.2239 42.0587 72.6613 42.6213C72.0987 43.1839 71.3357 43.5 70.54 43.5C69.7444 43.5 68.9813 43.1839 68.4187 42.6213C67.8561 42.0587 67.54 41.2956 67.54 40.5V35.75ZM67.54 54.75C67.54 53.9544 67.8561 53.1913 68.4187 52.6287C68.9813 52.0661 69.7444 51.75 70.54 51.75C71.3357 51.75 72.0987 52.0661 72.6613 52.6287C73.2239 53.1913 73.54 53.9544 73.54 54.75V59.5C73.54 60.2956 73.2239 61.0587 72.6613 61.6213C72.0987 62.1839 71.3357 62.5 70.54 62.5C69.7444 62.5 68.9813 62.1839 68.4187 61.6213C67.8561 61.0587 67.54 60.2956 67.54 59.5V54.75ZM21.79 27.2C21.79 25.8739 22.3168 24.6021 23.2545 23.6645C24.1922 22.7268 25.4639 22.2 26.79 22.2H54.9C56.2261 22.2 57.4978 22.7268 58.4355 23.6645C59.3732 24.6021 59.9 25.8739 59.9 27.2V49.13C59.9 50.4561 59.3732 51.7279 58.4355 52.6655C57.4978 53.6032 56.2261 54.13 54.9 54.13H26.79C25.4639 54.13 24.1922 53.6032 23.2545 52.6655C22.3168 51.7279 21.79 50.4561 21.79 49.13V27.2ZM7.26 16.75C7.26 15.9544 7.57607 15.1913 8.13868 14.6287C8.70129 14.0661 9.46435 13.75 10.26 13.75C11.0556 13.75 11.8187 14.0661 12.3813 14.6287C12.9439 15.1913 13.26 15.9544 13.26 16.75V21.5C13.26 22.2956 12.9439 23.0587 12.3813 23.6213C11.8187 24.1839 11.0556 24.5 10.26 24.5C9.46435 24.5 8.70129 24.1839 8.13868 23.6213C7.57607 23.0587 7.26 22.2956 7.26 21.5V16.75ZM7.26 35.75C7.26 34.9544 7.57607 34.1913 8.13868 33.6287C8.70129 33.0661 9.46435 32.75 10.26 32.75C11.0556 32.75 11.8187 33.0661 12.3813 33.6287C12.9439 34.1913 13.26 34.9544 13.26 35.75V40.5C13.26 41.2956 12.9439 42.0587 12.3813 42.6213C11.8187 43.1839 11.0556 43.5 10.26 43.5C9.46435 43.5 8.70129 43.1839 8.13868 42.6213C7.57607 42.0587 7.26 41.2956 7.26 40.5V35.75ZM7.26 54.75C7.26 53.9544 7.57607 53.1913 8.13868 52.6287C8.70129 52.0661 9.46435 51.75 10.26 51.75C11.0556 51.75 11.8187 52.0661 12.3813 52.6287C12.9439 53.1913 13.26 53.9544 13.26 54.75V59.5C13.26 60.2956 12.9439 61.0587 12.3813 61.6213C11.8187 62.1839 11.0556 62.5 10.26 62.5C9.46435 62.5 8.70129 62.1839 8.13868 61.6213C7.57607 61.0587 7.26 60.2956 7.26 59.5V54.75Z" fill="black"/>
</svg>
