<svg xmlns="http://www.w3.org/2000/svg" viewBox="0 0 32 22" fill="none">
  <g stroke="#fff" stroke-width="1.7" stroke-linecap="round" stroke-linejoin="round">
    <path d="M10.2 15.8c0-4.8 3.6-8.2 8.5-8.2 4 0 7.1 2.1 8.2 5.5l3.1 1.2-3.1 1.5H10.2Z"/>
    <path d="M17.2 7.7 15.4 1.9c-.3-1 .8-1.7 1.6-1l4.4 5.4M20.8 7.7 21.7 2c.2-1.1 1.6-1.3 2.1-.3l2.5 6.8M10.4 13.2 6.7 10M11 15.8 7.6 20.3M20.5 15.8l2.7 3.4"/>
    <circle cx="24.2" cy="11.1" r=".8" fill="#fff" stroke="none"/>
    <path d="M9.7 11.6c-1.2-1.2-2.8-1.5-4.2-.8-1.5.8-2.2 2.5-1.6 4.1"/>
  </g>
</svg>
